<svg width="20" height="20" viewBox="0 0 20 20" fill="none" xmlns="http://www.w3.org/2000/svg">
<path d="M18.3333 13.95V3.89167C18.3333 2.89167 17.5166 2.15 16.525 2.23333H16.475C14.725 2.38333 12.0666 3.275 10.5833 4.20833L10.4416 4.3C10.2 4.45 9.79996 4.45 9.55829 4.3L9.34996 4.175C7.86663 3.25 5.21663 2.36667 3.46663 2.225C2.47496 2.14167 1.66663 2.89167 1.66663 3.88333V13.95C1.66663 14.75 2.31663 15.5 3.11663 15.6L3.35829 15.6333C5.16663 15.875 7.95829 16.7917 9.55829 17.6667L9.59163 17.6833C9.81663 17.8083 10.175 17.8083 10.3916 17.6833C11.9916 16.8 14.7916 15.875 16.6083 15.6333L16.8833 15.6C17.6833 15.5 18.3333 14.75 18.3333 13.95Z" stroke="white" stroke-width="1.25" stroke-linecap="round" stroke-linejoin="round"/>
<path d="M10 4.575V17.075" stroke="white" stroke-width="1.25" stroke-linecap="round" stroke-linejoin="round"/>
<path d="M6.45837 7.075H4.58337" stroke="white" stroke-width="1.25" stroke-linecap="round" stroke-linejoin="round"/>
<path d="M7.08337 9.575H4.58337" stroke="white" stroke-width="1.25" stroke-linecap="round" stroke-linejoin="round"/>
</svg>
