<svg width="16" height="16" viewBox="0 0 16 16" fill="none" xmlns="http://www.w3.org/2000/svg">
<g clip-path="url(#clip0_59_4732)">
<path d="M5.09094 0.727295V2.90911" stroke="#242359" stroke-width="1.2" stroke-miterlimit="10" stroke-linecap="round" stroke-linejoin="round"/>
<path d="M10.9091 0.727295V2.90911" stroke="#242359" stroke-width="1.2" stroke-miterlimit="10" stroke-linecap="round" stroke-linejoin="round"/>
<path d="M1.81824 5.88354H14.1819" stroke="#242359" stroke-width="1.2" stroke-miterlimit="10" stroke-linecap="round" stroke-linejoin="round"/>
<path d="M14.5455 5.45448V11.6363C14.5455 13.8181 13.4546 15.2727 10.9091 15.2727H5.09095C2.5455 15.2727 1.45459 13.8181 1.45459 11.6363V5.45448C1.45459 3.27266 2.5455 1.81812 5.09095 1.81812H10.9091C13.4546 1.81812 14.5455 3.27266 14.5455 5.45448Z" stroke="#242359" stroke-width="1.2" stroke-miterlimit="10" stroke-linecap="round" stroke-linejoin="round"/>
<path d="M10.687 9.23644H10.6936" stroke="#242359" stroke-width="1.4" stroke-linecap="round" stroke-linejoin="round"/>
<path d="M10.687 11.4181H10.6936" stroke="#242359" stroke-width="1.4" stroke-linecap="round" stroke-linejoin="round"/>
<path d="M7.99673 9.23644H8.00326" stroke="#242359" stroke-width="1.4" stroke-linecap="round" stroke-linejoin="round"/>
<path d="M7.99673 11.4181H8.00326" stroke="#242359" stroke-width="1.4" stroke-linecap="round" stroke-linejoin="round"/>
<path d="M5.30495 9.23644H5.31149" stroke="#242359" stroke-width="1.4" stroke-linecap="round" stroke-linejoin="round"/>
<path d="M5.30495 11.4181H5.31149" stroke="#242359" stroke-width="1.4" stroke-linecap="round" stroke-linejoin="round"/>
</g>
<defs>
<clipPath id="clip0_59_4732">
<rect width="16" height="16" fill="white"/>
</clipPath>
</defs>
</svg>
