<svg width="20" height="20" viewBox="0 0 20 20" fill="none" xmlns="http://www.w3.org/2000/svg">
<path d="M14.9833 8.99167V12.325C14.9833 12.5417 14.975 12.75 14.95 12.95C14.7583 15.2 13.4333 16.3167 10.9916 16.3167H10.6583C10.45 16.3167 10.25 16.4167 10.125 16.5833L9.12497 17.9167C8.6833 18.5083 7.96662 18.5083 7.52496 17.9167L6.52495 16.5833C6.41661 16.4417 6.17496 16.3167 5.99163 16.3167H5.6583C2.99997 16.3167 1.66663 15.6583 1.66663 12.325V8.99167C1.66663 6.55001 2.79163 5.22501 5.0333 5.03334C5.2333 5.00834 5.44163 5 5.6583 5H10.9916C13.65 5 14.9833 6.33334 14.9833 8.99167Z" stroke="white" stroke-width="1.25" stroke-miterlimit="10" stroke-linecap="round" stroke-linejoin="round"/>
<path d="M18.3167 5.65836V8.99169C18.3167 11.4417 17.1917 12.7584 14.95 12.95C14.975 12.75 14.9833 12.5417 14.9833 12.325V8.99169C14.9833 6.33336 13.65 5.00002 10.9917 5.00002H5.65833C5.44166 5.00002 5.23333 5.00836 5.03333 5.03336C5.22499 2.79169 6.54999 1.66669 8.99166 1.66669H14.325C16.9833 1.66669 18.3167 3.00003 18.3167 5.65836Z" stroke="white" stroke-width="1.25" stroke-miterlimit="10" stroke-linecap="round" stroke-linejoin="round"/>
<path d="M11.2463 11.0417H11.2538" stroke="white" stroke-width="1.66667" stroke-linecap="round" stroke-linejoin="round"/>
<path d="M8.32954 11.0417H8.33704" stroke="white" stroke-width="1.66667" stroke-linecap="round" stroke-linejoin="round"/>
<path d="M5.41292 11.0417H5.42042" stroke="white" stroke-width="1.66667" stroke-linecap="round" stroke-linejoin="round"/>
</svg>
