<svg width="24" height="24" viewBox="0 0 24 24" fill="none" xmlns="http://www.w3.org/2000/svg">
<path d="M12.3877 2.51814L12.3584 2.58814L9.52075 9.31814H6.73204C6.06667 9.31814 5.43064 9.45814 4.85333 9.70814L6.5657 5.52814L6.60484 5.42814L6.67333 5.26814C6.6929 5.20814 6.71247 5.14814 6.74183 5.09814C8.02366 2.06814 9.47183 1.37814 12.3877 2.51814Z" stroke="currentColor" stroke-width="1.5" stroke-linecap="round" stroke-linejoin="round"/>
<path d="M17.6618 9.51814C17.2215 9.37814 16.7518 9.31813 16.2821 9.31813H9.52075L12.3584 2.58814L12.3877 2.51814C12.5345 2.56814 12.6715 2.63814 12.8183 2.69814L14.9808 3.62814C16.1843 4.13814 17.0258 4.66814 17.5346 5.30814C17.6325 5.42814 17.7108 5.53814 17.7792 5.66814C17.8673 5.80814 17.9358 5.94813 17.9749 6.09813C18.0141 6.18813 18.0434 6.27814 18.063 6.35814C18.3272 7.19814 18.1706 8.22814 17.6618 9.51814Z" stroke="currentColor" stroke-width="1.5" stroke-linecap="round" stroke-linejoin="round"/>
<path d="M21.0589 14.1984V16.1484C21.0589 16.3484 21.0491 16.5484 21.0393 16.7484C20.8534 20.2384 18.9453 21.9984 15.3249 21.9984H7.69264C7.4578 21.9984 7.22296 21.9784 6.99791 21.9484C3.88629 21.7384 2.22285 20.0384 2.01737 16.8584C1.98801 16.6284 1.96844 16.3884 1.96844 16.1484V14.1984C1.96844 12.1884 3.16221 10.4584 4.86479 9.70836C5.45189 9.45836 6.07812 9.31836 6.7435 9.31836H16.2936C16.7731 9.31836 17.2427 9.38836 17.6733 9.51836C19.6205 10.1284 21.0589 11.9884 21.0589 14.1984Z" stroke="currentColor" stroke-width="1.5" stroke-linecap="round" stroke-linejoin="round"/>
<path d="M6.56568 5.52814L4.85331 9.70814C3.15073 10.4581 1.95697 12.1881 1.95697 14.1981V11.2681C1.95697 8.42814 3.93353 6.05814 6.56568 5.52814Z" stroke="currentColor" stroke-width="1.5" stroke-linecap="round" stroke-linejoin="round"/>
<path d="M21.0558 11.2677V14.1977C21.0558 11.9977 19.6272 10.1277 17.6702 9.52766C18.179 8.22766 18.3258 7.20766 18.0812 6.35766C18.0616 6.26766 18.0323 6.17766 17.9931 6.09766C19.8131 7.05766 21.0558 9.02766 21.0558 11.2677Z" stroke="currentColor" stroke-width="1.5" stroke-linecap="round" stroke-linejoin="round"/>
</svg>
