<svg width="24" height="24" viewBox="0 0 24 24" fill="none" xmlns="http://www.w3.org/2000/svg">
<path d="M8.80644 19C8.80644 19.75 8.60096 20.46 8.23891 21.06C7.56375 22.22 6.32107 23 4.89246 23C3.46386 23 2.22118 22.22 1.54601 21.06C1.18397 20.46 0.978485 19.75 0.978485 19C0.978485 16.79 2.72999 15 4.89246 15C7.05494 15 8.80644 16.79 8.80644 19Z" stroke="currentColor" stroke-width="1.5" stroke-miterlimit="10" stroke-linecap="round" stroke-linejoin="round"/>
<path d="M3.3674 18.9995L4.33611 19.9895L6.42031 18.0195" stroke="currentColor" stroke-width="1.5" stroke-linecap="round" stroke-linejoin="round"/>
<path d="M17.3697 7.04997C17.1348 7.00997 16.8902 6.99998 16.6358 6.99998H6.85084C6.57686 6.99998 6.31267 7.01998 6.05826 7.05998C6.19525 6.77998 6.39095 6.52001 6.62579 6.28001L9.80589 3.02C11.1464 1.66 13.3187 1.66 14.6592 3.02L16.3716 4.78996C16.9978 5.41996 17.3305 6.21997 17.3697 7.04997Z" stroke="currentColor" stroke-width="1.5" stroke-linecap="round" stroke-linejoin="round"/>
<path d="M21.5269 12V17C21.5269 20 19.5699 22 16.6344 22H7.46593C7.76926 21.74 8.03345 21.42 8.23893 21.06C8.60098 20.46 8.80646 19.75 8.80646 19C8.80646 16.79 7.05496 15 4.89248 15C3.71829 15 2.6713 15.53 1.957 16.36V12C1.957 9.28 3.56173 7.38 6.05689 7.06C6.3113 7.02 6.5755 7 6.84947 7H16.6344C16.8888 7 17.1335 7.00999 17.3683 7.04999C19.8928 7.34999 21.5269 9.26 21.5269 12Z" stroke="currentColor" stroke-width="1.5" stroke-linecap="round" stroke-linejoin="round"/>
<path d="M21.5269 12.5H18.5914C17.515 12.5 16.6344 13.4 16.6344 14.5C16.6344 15.6 17.515 16.5 18.5914 16.5H21.5269" stroke="currentColor" stroke-width="1.5" stroke-linecap="round" stroke-linejoin="round"/>
</svg>
